<?xml version="1.0" encoding="utf-8"?>
<!-- Generator: Adobe Illustrator 16.0.0, SVG Export Plug-In . SVG Version: 6.00 Build 0)  -->
<!DOCTYPE svg PUBLIC "-//W3C//DTD SVG 1.1//EN" "http://www.w3.org/Graphics/SVG/1.1/DTD/svg11.dtd" [
	<!ENTITY ns_flows "http://ns.adobe.com/Flows/1.0/">
	<!ENTITY ns_extend "http://ns.adobe.com/Extensibility/1.0/">
	<!ENTITY ns_ai "http://ns.adobe.com/AdobeIllustrator/10.0/">
	<!ENTITY ns_graphs "http://ns.adobe.com/Graphs/1.0/">
]>
<svg version="1.1" id="Layer_2" xmlns:x="&ns_extend;" xmlns:i="&ns_ai;" xmlns:graph="&ns_graphs;"
	 xmlns="http://www.w3.org/2000/svg" xmlns:xlink="http://www.w3.org/1999/xlink" xmlns:a="http://ns.adobe.com/AdobeSVGViewerExtensions/3.0/"
	 x="0px" y="0px" width="864px" height="864px" viewBox="0 0 864 864" enable-background="new 0 0 864 864" xml:space="preserve">
<path fill-rule="evenodd" clip-rule="evenodd" d="M420.868,842.299c-41.137,1.361-81.958-1.146-121.869-11.782
	c-21.13-5.633-41.454-13.006-54.609-32.774c-2.804-4.214-9.064-6.501-14.137-8.769c-27.695-12.383-54.314-26.567-78.007-45.722
	c-14.093-11.396-26.625-24.109-33.338-41.497c-4.061-10.518-4.875-21.165,0.894-31.062c36.34-62.341,54.514-131.804,79.113-198.803
	c10.863-29.587,16.127-59.948,21.433-90.58c3.274-18.902,3.53-19.225-15.546-19.739c-53.532-1.441-94.101-25.489-121.809-70.707
	c-18.176-29.66-23.661-62.662-21.436-97.161c1.249-19.378,5.653-37.91,12.996-55.856c16.17-39.518,45.841-63.722,85.886-76.31
	c20.208-6.353,40.929-6.104,61.769-5.198c2.709,0.117,6.737-1.649,8.124-3.832c15.004-23.634,35.977-30.804,62.427-21.327
	c24.748,8.868,42.711,26.055,58.334,46.315c20.161,26.146,35.978,54.724,46.982,85.815c2.723,7.695,6.353,8.823,13.896,7.615
	c7.817-1.252,16.176-0.856,24.035,0.424c6.436,1.047,9.591,0.64,13.165-5.918c15.335-28.142,30.261-56.68,48.045-83.261
	c16.195-24.207,36.729-45.443,66.497-53.075c10.972-2.813,23.054-3.343,34.372-2.25c14.907,1.439,25.476,10.651,30.12,25.161
	c2.13,6.656,5.089,7.812,11.699,6.247c31.848-7.536,63.251-6.997,92.908,8.578c36.672,19.257,56.07,51.772,65.402,90.501
	c17.476,72.511-15.184,151.65-78.021,191.329c-23.74,14.991-49.73,20.765-77.707,17.617c-11.428-1.286-12.052-0.377-10.401,10.879
	c3.007,20.507,3.954,41.549,9.256,61.436c8.498,31.886,18.886,63.36,30.23,94.366c13.717,37.487,29.214,74.323,44.091,111.38
	c1.629,4.058,3.726,8.152,6.499,11.488c14.205,17.089,11.648,35.205,2.898,53.148c-17.491,35.881-46.11,59.274-83.798,71.557
	c-8.15,2.657-14.56,6.209-19.279,13.744c-8.616,13.754-22.519,20.88-37.218,26.021c-47.529,16.629-96.768,22.337-146.877,22.004
	C432.214,842.268,426.542,842.299,420.868,842.299z"/>
<g id="Layer_3">
	<path fill="#D02027" d="M401.378,217.376l-0.243-0.261c4.707,1.251,9.413,2.501,14.119,3.752c0.063,0.335,0.128,0.669,0.192,1.003
		c-6.98,0-13.959,0-21,0c0.621,7.223,1.42,13.077,1.561,18.948c0.217,9.164-1.352,17.219,12.259,20.352
		c13.993,3.221,26.826,1.389,40.085-0.249c-2.382-0.78,14.26-6.55,6.415-36.659c-3.31-12.708-7.135-25.467-8.625-38.433
		c-1.035-8.989-7.39-11.281-12.852-12.682c-6.175-1.583-14.486-1.593-19.767,1.408c-14.128,8.03-17.599,22.543-17.677,37.764
		C395.837,213.995,399.446,215.69,401.378,217.376z"/>
	<path fill="#D02027" d="M262.199,274.912l-0.224-0.257c4.817,11.061,16.163,10.396,24.668,11.026
		c12.842,0.951,25.976-1.992,38.979-3.351c0.811-0.084,1.526-0.866,2.338-1.188c10.74-4.267,21.487-8.509,30.577-12.102
		c5.014-3.65,16.208-6.488,18.14-4.462c0.484-1.312,6.133-3.607,8.125-8.796c0.557-11.195,0.234-21.154,1.742-30.828
		c1.866-11.98,0.223-23.285-6.436-25.037c-5.901-1.554-12.6,0.091-18.645-1.147c-5.029-1.032-9.621-4.201-14.408-6.423
		c0.394-0.78,0.786-1.562,1.18-2.343c1.496-0.091,2.993-0.182,4.49-0.272c5.419,0.05,10.839,0.101,16.259,0.152
		c3.279-2.233,6.558-4.468,9.749-6.641c-0.338,2.365-0.739,5.164-1.308,9.137c5.687-0.764,13.943-0.286,14.568-2.245
		c2.15-6.729,8.392-12.973,3.494-21.538c-5.528-9.667-9.258-20.343-14.337-30.291c-5.822-11.404-12.783-22.244-18.27-33.795
		c-4.026-8.475-12.842-13.313-15-23.42c-2.104-9.855-18.191-21.013-26.077-20.328c0.277-7.882-15.632-20.789-24.18-19.513
		c-0.234,2.364-0.469,4.752-0.706,7.14c-0.471-8.12-1.682-15.097-11.284-17.388c-14.969-3.574-20.557-2.24-25.219,5.528
		c-4.006,0.488-8.317-0.24-9.562,1.384c-5.072,6.614-11.183,13.404-13.311,21.121c-6.365,23.073-0.399,45.465,7.611,67.14
		c6.616,17.9,14.253,35.423,21.905,54.265c1.496,0.113,5.146,0.387,8.796,0.662c-10.078-0.222-13.461,6.081-14.174,14.368
		c-0.6,6.978,2.66,16.737-0.873,20.521c-8.331,8.927-7.049,19.37-7.212,28.807C253.419,255,251.01,267.348,262.199,274.912z"/>
	<path fill="#D02027" d="M525.602,58.566c-6.299,6.312-16.824,10.148-13.914,21.771c-2.042,1.403-4.719,2.674-6.651,4.667
		c-10.206,10.519-18.311,22.357-22.068,36.783c-0.273,1.05-0.894,2.762-1.534,2.851c-8.399,1.158-8.927,8.538-11.542,14.266
		c-1.244,2.468-2.488,4.937-3.732,7.406c-1.646,4.786-2.082,10.63-5.166,14.152c-8.165,9.315-11.77,18.485-4.528,29.848
		c0.868,1.362,0.738,3.36,0.838,3.871c10.298,0,19.675,0,29.049,0c0.209,1.107,0.418,2.216,0.629,3.324
		c-6.74,3.017-13.668,5.687-20.12,9.225c-2.497,1.37-5.614,4.764-5.531,7.133c0.351,9.881,1.632,19.748,2.937,29.571
		c0.759,5.712,0.646,11.106,8.423,14.193c4.503,1.788,8.271,5.604,14.014,6.54c5.183,0.844,9.753,4.985,14.938,6.485
		c2.201,0.637,5.276-1.758,8.215-2.874c4.908,12.479,21.167,17.785,34.761,10.101c2.697,4.779,15.686,7.516,30.867,4.365
		c10.723-2.226,27.698-13.916,29.931-32.299c1.634-13.443,2.435-13.346-2.822-16.555c-0.142-13.519,1.388-5.777-0.142-13.519
		c-1.959-9.92-3.068-20.586-7.657-29.287c-8.9-16.868,0.096-30.86,5.046-45.312c2.895-8.442,9.525-15.537,13.337-23.764
		c1.49-3.212-0.142-7.87-0.335-11.513c1.444-2.029,3.818-4.271,4.835-7.017c2.564-6.917,4.985-13.956,6.612-21.14
		c3.048-13.453,0.128-26.224-6.805-37.844c-2.01-3.37-6.102-5.782-9.695-7.839c-3.212-1.842-7.395-2.019-10.556-3.919
		c-15.62-9.388-29.971-3.17-43.237,4.538c-6.39,3.711-15.067,8.222-13.336,18.85c-6.831-6.989-7.634-6.819-15.318,3.155
		L525.602,58.566z"/>
</g>
<g>
	<path fill="#FFFFFF" d="M712.601,666.543c0.843-0.518,1.683-1.035,2.522-1.555c-0.25-1.119-0.238-2.391-0.789-3.338
		c-27.919-48.044-43.432-100.987-60.923-153.19c-7.086-21.147-15.671-41.788-23.451-62.707c-4.108-11.046-9.453-21.908-11.598-33.35
		c-4.245-22.666-7.56-45.451-19.455-65.731c-3.099-5.284-7.234-9.958-10.892-14.913c-1.008,0.448-2.015,0.896-3.022,1.345
		c-0.125,2.633-0.504,5.283-0.332,7.897c0.676,10.354,1.95,20.687,2.182,31.047c0.209,9.443-2.119,10.101-10.655,6.331
		c-9.439-4.167-19.146-8.507-29.182-10.392c-32.183-6.041-62.521,0.797-91.428,15.439c-10.308,5.221-12.941,4.023-13.278-7.746
		c-0.854-29.92-0.942-59.862-1.32-89.795c-0.054-4.321-0.007-8.643-0.007-13.505c-8.789,0-16.469,1.043-23.731-0.257
		c-9.683-1.734-11.149,2.272-11.128,10.566c0.07,27.731-0.336,55.468-0.859,83.197c-0.105,5.608-1.434,11.205-2.355,16.782
		c-0.869,5.254-3.874,6.154-8.087,3.4c-2.365-1.545-4.566-3.374-6.693-5.241c-15.387-13.506-33.422-20.728-53.729-19.132
		c-16.146,1.269-32.171,4.708-48.093,7.952c-9.232,1.881-12.856-0.317-9.797-8.97c4.488-12.687,10.117-25.003,15.919-37.162
		c1.128-2.362,6.188-5.277,7.883-4.51c6.609,2.99,9.225-1.208,12.428-5.138c4.973-6.098,10.074-12.095,14.949-18.271
		c1.336-1.693,2.062-3.868,2.64-4.992c-18.425,0.738-36.188,1.293-53.923,2.347c-2.355,0.139-4.783,2.562-6.792,4.359
		c-5.373,4.805-10.091,10.462-15.885,14.655c-9.39,6.794-19.43,12.688-30.64,19.89c20.084-0.761,33.362-14.164,49.643-20.443
		c-0.376,3.324-1.273,5.599-2.59,7.598c-15.493,23.507-25.45,48.946-29.38,77.021c-1.806,12.897-3.977,26.85-10.338,37.792
		c-16.807,28.911-26.907,60.233-37.803,91.412c-10.897,31.185-21.399,62.555-33.756,93.164
		c-7.626,18.895-18.456,36.49-27.726,54.733c-3.01,5.921-4.831,12.018,0.878,19.719c2.498-5.791,4.07-10.333,6.332-14.504
		c6.149-11.343,13.699-22.059,18.702-33.865c13.495-31.86,25.965-64.152,38.822-96.281c13.205-33,24.794-66.766,40.054-98.781
		c13.431-28.179,34.144-51.066,66.542-58.676c29.258-6.87,57.195-7.452,84.079,11.477c9.906,6.977,25.994,8.078,38.92,7.137
		c16.801-1.221,34.461-3.558,48.262-15.836c1.794-1.597,4.577-2.047,6.833-3.163c15.875-7.858,32.955-5.26,49.351-4.256
		c32.894,2.014,59.979,16.207,77.974,44.622c20.076,31.702,30.354,67.675,42.585,102.674c14.037,40.164,27,80.7,50.107,116.916
		C704.183,655.979,708.571,661.146,712.601,666.543z"/>
	<path fill="#FFFFFF" d="M401.251,495.371c0.685,0.636,1.368,1.271,2.052,1.907c1.303-2.804,2.612-5.607,3.908-8.416
		c3.796-8.233,8.098-16.698,18.638-16.272c11.231,0.455,15.318,9.65,18.892,18.662c0.924,2.327,1.686,4.741,2.844,6.944
		c0.687,1.305,1.794,2.749,3.072,3.32c8.978,3.992,17.772,8.748,27.148,11.408c17.173,4.867,34.62,8.959,52.174,12.148
		c3.458,0.629,8.172-3.951,11.862-6.72c4.827-3.623,8.597-9.266,13.896-11.547c29.94-12.896,40.712-43.572,24.611-71.925
		c-20.267-35.69-57.864-48.627-95.693-32.577c-7.729,3.279-14.903,7.857-22.335,11.836c0.516,1.093,1.03,2.185,1.546,3.278
		c3.117-0.943,6.354-1.603,9.326-2.879c15.966-6.863,32.565-9.096,49.877-8.208c23.869,1.225,39.438,13.98,48.351,34.972
		c9.442,22.245,2.245,50.846-24.389,62.24c-15.627,6.687-31.235,6.188-47.201,6.141c-19.831-0.058-36.104-8.994-48.868-23.084
		c-4.939-5.45-8.514-14.946-7.804-22.115c1.421-14.337,0.711-18.114-19.432-22.485c-12.167-2.639-19.398,3.323-20.442,15.727
		c-2.284,27.147-19.471,43.962-47.138,45.194c-14.467,0.643-29.088,1.169-43.454-0.198c-16.114-1.533-30.668-7.712-38.626-23.348
		c-7.757-15.244-1.179-40.411,14.418-53.917c22.706-19.664,48.872-20.89,76.395-12.972c5.298,1.525,10.465,3.505,15.693,5.273
		c0.504-1.358,1.008-2.716,1.513-4.073c-7.447-3.444-14.705-7.399-22.375-10.245c-41.722-15.472-84.837,5.987-97.757,48.413
		c-5.191,17.047,1.137,36.681,15.131,47.381c7.434,5.684,14.626,11.687,22.143,17.255c1.884,1.395,4.673,2.522,6.921,2.327
		c27.613-2.401,55.194-4.886,80.119-19.002C390.684,497.314,396.228,496.802,401.251,495.371z"/>
	<path fill="#FFFFFF" d="M424.625,511.627c10.644-0.306,20.411,1.052,23.853,12.046c8.769,28.008,24.841,52.171,39.456,77.107
		c6.192,10.567,11.528,22.333,20.133,30.53c5.303,5.053,7.479,7.404,6.069,14.644c-0.689,3.537,3.163,10.514,6.44,11.642
		c4.4,1.521,11.164,0.253,15.118-2.446c2.591-1.767,3.886-8.982,2.458-12.361c-3.259-7.708-8.209-14.796-13.071-21.715
		c-23.335-33.202-47.123-66.088-70.244-99.436c-14.836-21.403-42.173-22.955-56.779-3.277
		c-29.231,39.38-59.142,78.257-88.404,117.613c-2.387,3.21-3.76,9.254-2.353,12.621c1.428,3.412,6.915,7.096,10.582,7.054
		c3.699-0.044,9.76-3.925,10.557-7.165c2.243-9.126,8.936-14.775,13.487-22.081c20.211-32.445,46.849-61.049,58.758-98.528
		C404.287,516.541,412.691,510.355,424.625,511.627z"/>
	<path fill="#FFFFFF" d="M269.64,541.371c3.457,4.465,5.453,7.596,7.98,10.219c12.663,13.132,25.407,26.19,38.239,39.157
		c9.589,9.69,10.984,9.567,19.44-1.118c15.228-19.244,30.401-38.526,45.608-57.783c2.604-3.299,5.261-6.555,7.893-9.827
		c-0.449-0.699-0.898-1.396-1.347-2.094C348.782,526.965,310.11,534.004,269.64,541.371z"/>
	<path fill="#FFFFFF" d="M463.841,519.851c-0.661,1.044-1.32,2.091-1.979,3.136c6.106,7.404,12.231,14.794,18.319,22.217
		c14.543,17.728,29.077,35.462,43.59,53.215c3.537,4.324,7.116,7.794,11.844,1.397c10.447-14.14,20.938-28.249,31.25-42.485
		c3.505-4.837,1.685-7.745-4.062-7.934c-27.274-0.894-51.983-10.969-76.704-21.113C478.763,525.272,471.264,522.649,463.841,519.851
		z"/>
	<path fill="#FFFFFF" d="M130.042,295.512c-38.99-73.168-34.471-141.904,18.035-206.887
		c-39.229,26.801-61.647,64.727-63.845,112.041C82.439,239.255,99.724,271.414,130.042,295.512z"/>
	<path fill="#FFFFFF" d="M472.577,610.51c-0.195,4.194-0.318,7.809-0.546,11.415c-0.369,5.84-3.534,8.158-9.344,8.033
		c-6.821-0.151-8.21-4.081-8.43-9.871c-0.551-14.437-1.247-28.873-2.391-43.268c-0.19-2.387-2.953-4.568-4.524-6.843
		c-1.413,2.126-3.279,4.092-4.103,6.427c-0.692,1.966-0.19,4.359-0.188,6.562c0.014,12.596,0.142,25.191,0.005,37.785
		c-0.054,4.938-0.796,9.451-7.685,9.384c-6.357-0.06-7.967-3.34-8.11-8.944c-0.241-9.431-0.961-18.847-1.438-28.272
		c-0.302-5.972-0.19-11.992-0.988-17.893c-0.248-1.831-2.87-3.342-4.405-4.999c-1.483,1.418-3.708,2.59-4.281,4.312
		c-0.967,2.906-1.264,6.174-1.177,9.27c0.313,11.312,0.967,22.616,1.359,33.929c0.197,5.679-0.71,11.475-7.625,12.018
		c-7.222,0.568-8.619-5.257-8.769-10.903c-0.283-10.702-0.04-21.414-0.335-32.113c-0.083-3.006-1.283-5.983-1.97-8.973
		c-1.1-0.079-2.2-0.158-3.299-0.237c-1.355,4.152-3.506,8.228-3.908,12.471c-1.008,10.64-1.203,21.355-1.767,32.039
		c-0.277,5.245-3.078,9.096-8.252,7.52c-2.692-0.821-4.732-5.238-6.11-8.443c-1.067-2.479-0.649-5.599-1.115-11.055
		c-3.689,4.052-5.958,5.795-7.218,8.093c-2.181,3.979-3.737,8.298-5.555,12.473c4.642,1.107,9.277,3.129,13.927,3.169
		c30.514,0.243,61.036,0.275,91.545-0.16c6.438-0.091,12.845-2.412,19.265-3.707c-3.229-6.243-6.45-12.491-9.714-18.719
		C475.346,610.838,474.842,610.889,472.577,610.51z"/>
	<path fill="#FFFFFF" d="M662.49,334.264c14.059,2.083,26.84-0.746,38.763-7.493c39.972-22.623,64.899-56.811,75.901-101
		c2.248-9.029,4.765-19.063,0.076-30.829C752.598,254.374,722.347,306.312,662.49,334.264z"/>
	<path fill="#FFFFFF" d="M504.235,665.334c-1.165-1.216-2.331-2.43-3.493-3.644c-3.282,2.659-6.836,5.046-9.793,8.025
		c-14.388,14.506-27.877,29.999-43.084,43.572c-19.022,16.978-31.612,16.553-50.646-0.226c-15.58-13.735-30.295-28.446-45.643-42.45
		c-2.893-2.64-6.96-3.99-10.485-5.938c-0.721,1.14-1.44,2.277-2.16,3.417c21.446,23.808,40.659,50,70.661,64.743
		c13.023,6.401,25.752,4.431,36.146-4.774c15.485-13.71,30.156-28.383,44.572-43.235
		C495.808,679.16,499.642,671.879,504.235,665.334z"/>
	<path fill="#FFFFFF" d="M337.911,650.498c0.061,1.446,0.122,2.893,0.183,4.338c4.047,0.553,8.09,1.569,12.138,1.581
		c33.998,0.1,67.998,0.144,101.995-0.067c15.704-0.098,31.407-0.654,47.093-1.411c2.094-0.103,4.071-2.611,6.1-4.004
		c-1.971-1.165-3.816-2.822-5.946-3.37c-2.372-0.61-5.002-0.243-7.521-0.243c-45.011,0.03-90.019-0.049-135.025,0.241
		C350.582,647.604,344.249,649.475,337.911,650.498z"/>
	<path fill="#FFFFFF" d="M516.005,496.32c0.03,0.217,0.058,0.433,0.088,0.649c5.26-0.766,10.616-1.128,15.76-2.369
		c19.301-4.656,22.339-14.244,9.3-28.992c-2.27-2.566-5.014-4.716-7.511-7.084c-6.03-5.717-10.198-4.027-13.907,2.874
		c-4.117,7.654-8.964,14.915-13.332,22.44c-1.757,3.027-3.089,6.303-4.613,9.466c3.168,1.005,6.301,2.149,9.521,2.953
		C512.788,496.625,514.436,496.32,516.005,496.32z"/>
	<path fill="#FFFFFF" d="M323.083,488.279c1.02-0.262,5.363-0.243,7.937-2.366c2.427-2.001,4.854-6.85,4.042-9.424
		c-3.11-9.85-18.615-19.21-29.025-18.797c-7.942,0.315-10.236,5.006-9.224,12C298.395,480.62,308.154,488.218,323.083,488.279z"/>
	<path fill="#FFFFFF" d="M541.456,616.466c18.909-19.67,32.396-43.121,48.929-66.628
		C578.966,550.777,539.702,605.067,541.456,616.466z"/>
	<path fill="#FFFFFF" d="M261.186,544.562c-0.726,0.666-1.453,1.332-2.179,2c1.871,9.741,50.655,60.865,61.574,60.905
		C300.782,586.497,280.984,565.529,261.186,544.562z"/>
	<path fill="#E8E9EC" d="M379.327,180.862c0,0-9.562,5.886-11.755,7.436c-2.192,1.55-15.673,3.517-18.721,0
		c-3.047-3.518-6.481-7.872-4.982-10.048c1.499-2.176,10.085-10.884,17.547-10.013C368.878,169.107,373.638,169.914,379.327,180.862
		z"/>
	<path fill="#E8E9EC" d="M456.622,234.244c1.829,2.199-1.956,18.393-5.114,22.535c-3.157,4.142-5.214,4.404-7.359,4.662
		s-7.787-0.168-9.094-8.592s1.742-12.841,5.225-15.639S448.979,225.053,456.622,234.244z"/>
	<path fill-rule="evenodd" clip-rule="evenodd" fill="#E8E9EC" d="M468.98,141.25c2.944-3.47,3.79-8.202,6.815-11.769
		c12.136,7.162,15.251,10.36,11.717,20.378c-3.148,8.918-10.004,12.734-19.246,10.241c-7.216-1.947-2.419-7.505-3.019-11.444
		C466.492,146.187,467.736,143.718,468.98,141.25z"/>
	<path fill-rule="evenodd" clip-rule="evenodd" fill="#E8E9EC" d="M553.311,205.524c-8.935-0.057-16.372-7.09-16.373-15.48
		c-0.001-7.84,7.807-15.2,16.203-15.271c7.858-0.067,16.83,9.045,16.429,16.688C569.25,197.539,559.968,205.567,553.311,205.524z"/>
	<path fill-rule="evenodd" clip-rule="evenodd" fill="#E8E9EC" d="M548.627,126.248c0.041,8.989-4.43,12.811-15.096,12.903
		c-7.949,0.068-15.22-6.011-15.498-12.961c-0.351-8.737,7.702-17.012,16.891-17.355C543.04,108.53,548.577,115.567,548.627,126.248z
		"/>
	<path fill-rule="evenodd" clip-rule="evenodd" fill="#E8E9EC" d="M584.088,55.849c11.766-0.282,19.163,6.714,19.367,14.725
		c0.2,7.858-7.195,16.84-14.084,17.102c-5.215,0.199-17.871-12.363-15.95-17.898C575.489,63.821,581.377,59.191,584.088,55.849z"/>
	<path fill-rule="evenodd" clip-rule="evenodd" fill="#E8E9EC" d="M514.568,268.481c-0.68-7.435,5.442-14.86,12.227-15.592
		c6.659-0.718,16.582,8.555,15.829,16.167c-0.392,3.952-3.173,9.156-6.424,10.895C533.211,281.55,514.516,278.385,514.568,268.481z"
		/>
	<path fill-rule="evenodd" clip-rule="evenodd" fill="#E8E9EC" d="M503.887,209.361c1.313,10.477-6.938,13.888-13.451,14.469
		c-4.548,0.405-10.029-5.16-14.277-8.967c-1.102-0.986-3.561-10.641-2.965-11.3c5.33-5.911,18.284-9.24,27.959-3.596
		C503.196,201.158,503.034,206.131,503.887,209.361z"/>
	<path fill-rule="evenodd" clip-rule="evenodd" fill="#E8E9EC" d="M613.175,121.509c-2.203,5.795-8.041,10.624-10.431,16.91
		C594.384,129.508,598.54,122.252,613.175,121.509z"/>
	<path fill-rule="evenodd" clip-rule="evenodd" fill="#E8E9EC" d="M265.579,91.445c8.198-0.125,14.295,7.427,14.438,17.881
		c0.077,5.513-7.449,12.802-13.34,12.921c-10.389,0.208-17.065-5.566-17.176-14.859C249.388,97.803,255.647,91.595,265.579,91.445z"
		/>
	<path fill-rule="evenodd" clip-rule="evenodd" fill="#E8E9EC" d="M323.313,154.079c-3.437,3.53-10.124,6.623-13.523,5.29
		c-5.103-2.001-10.418-7.429-12.216-12.593c-1.344-3.858,1.369-11.213,4.756-14.056c3.493-2.931,10.478-3.993,15.02-2.688
		c3.931,1.13,9.566,4.71,9.501,10.527C326.84,141.559,328.698,148.55,323.313,154.079z"/>
	<path fill-rule="evenodd" clip-rule="evenodd" fill="#E8E9EC" d="M275.309,32.359c13.855-0.12,17.146,2.167,17.321,12.038
		c0.176,9.969-4.058,14.501-13.704,14.668c-9.729,0.17-16.774-5.604-16.951-13.893C261.753,34.77,264.162,32.456,275.309,32.359z"/>
	<path fill-rule="evenodd" clip-rule="evenodd" fill="#E8E9EC" d="M329.104,243.053c-7.039,2.823-8.115,0.089-13.221-4.021
		c-4.893-3.938-5.84-7.253-5.976-12.556c-0.238-9.306,7.362-11.379,13.173-11.906c4.321-0.39,10.561,3.441,13.334,7.28
		c3.349,4.635,8.558,11.694-0.073,16.72C333.472,240.243,330.803,241.377,329.104,243.053z"/>
	<path fill-rule="evenodd" clip-rule="evenodd" fill="#E8E9EC" d="M275.357,221.724c-6.029,0-9.646-3.447-12.043-6.122
		c-1.484-1.657,0.108-5.961,0.083-9.075c-0.017-2.039-0.53-4.209-0.566-6.065c-0.166-8.394,2.671-10.659,5.449-11.515
		c4.428-1.365,11.588-0.577,14.732,2.362c3.631,3.394,6.89,11.114,5.4,15.139C286.168,212.511,284.391,217.519,275.357,221.724z"/>
	<path fill-rule="evenodd" clip-rule="evenodd" fill="#E8E9EC" d="M328.178,64.896c16.801,4.997,18.555,20.056,12.526,26.853
		c-4.738,5.342-12.097,6.66-18.444,1.787C309.667,83.865,309.902,64.896,328.178,64.896z"/>
	<path fill-rule="evenodd" clip-rule="evenodd" fill="#E8E9EC" d="M262.306,274.383c-2.879-2.254-4.128-3.467-5.727-6.727
		c10.425-3.541,16.613,0.811,18.694,16.555c-0.762-0.175-2.56,0.571-7.646-2.942C267.631,281.271,262.306,274.383,262.306,274.383z"
		/>
	<path fill-rule="evenodd" clip-rule="evenodd" fill="#E8E9EC" d="M397.318,212.212c-2.181-5.942,1.208-15.596,2.176-19.707
		c0.354-1.754,2.367-6.685,3.641-6.685c6.012-1.912,12.235-0.801,14.29,1.956c3.377,4.535,4.635,11.804,4.18,17.719
		c-0.476,6.19-10.515,12.549-18.546,10.48C403.044,215.958,397.318,212.212,397.318,212.212z"/>
	<path fill="#FFFFFF" d="M524.638,60.969c-3.729,4.916-6.616-0.269-12.48,16.484c4.82,1.391,9.933,4.754,13.621,3.593
		c13.143-4.137,12.877-13.707,6.064-25.401L524.638,60.969z"/>
	<path fill="#FFFFFF" d="M597.012,266.936c0,0-10.04,4.737-12.85-15.842s18.352-12.816,19.297-10.224
		C609.202,256.617,597.012,266.936,597.012,266.936z"/>
</g>
</svg>
